<?xml version="1.0" encoding="UTF-8" standalone="no"?>
<!DOCTYPE svg PUBLIC "-//W3C//DTD SVG 1.1//EN" "http://www.w3.org/Graphics/SVG/1.1/DTD/svg11.dtd">
<svg width="100%" height="100%" viewBox="0 0 417 417" version="1.1" xmlns="http://www.w3.org/2000/svg" xmlns:xlink="http://www.w3.org/1999/xlink" xml:space="preserve" xmlns:serif="http://www.serif.com/" style="fill-rule:evenodd;clip-rule:evenodd;stroke-linejoin:round;stroke-miterlimit:2;">
    <g transform="matrix(4.16667,0,0,4.16667,0,0)">
        <circle cx="50" cy="50" r="50" style="fill:#5D715C;"/>
        <g transform="matrix(0.831852,0,0,0.831852,8.41579,6.41121)">
            <path d="M10,36.3C10,37.3 11.3,37.6 11.8,36.8C14.5,32.9 17.8,29.3 21.1,27.3C18.2,32.3 18.8,39.2 22.3,44.7C22.8,45.5 24.1,45.2 24.1,44.2C24.3,36.5 27.2,31.1 31.7,29.1C37.5,38.9 38.8,49.1 38.7,56.2C27.4,58.6 21.6,65.5 20,70C21.7,70.9 22.9,72 23.7,72.8C23.9,73 24.2,73.2 24.4,73.4C24.6,73.2 24.9,73 25.1,72.8C27,71 30.7,67.7 37.2,67.7C43.7,67.7 47.3,71 49.3,72.7C49.5,72.9 49.8,73.1 50,73.3C50.2,73.1 50.5,72.9 50.7,72.7C52.7,71 56.3,67.7 62.8,67.7C69.3,67.7 72.9,71 74.9,72.7C75.1,72.9 75.4,73.2 75.6,73.3C75.8,73.1 76.1,72.9 76.3,72.7C77.2,71.9 78.6,70.7 80.4,69.7C77.7,64 65.4,54.8 51.6,54.8C50.8,54.8 50.1,54.8 49.4,54.9C47.8,48.1 44.4,36.7 37.1,26C41.9,23.9 47.8,24.9 53.7,29.7C54.4,30.3 55.5,29.6 55.3,28.6C53.4,22 48.3,17 42.8,16.1C46,15 50.2,14.5 55.5,14.5C56.4,14.5 56.9,13.3 56.1,12.7C49.8,8 41.5,7.2 35.7,9.9C36.3,7.9 37.2,5.9 38.5,4C39,3.2 38.2,2.2 37.3,2.5C32.6,4.4 28.8,8 27.1,12.3C22.1,11.2 16.2,12.3 11.3,15.6C10.5,16.2 11,17.5 12,17.4C14.6,17.1 17.2,17.3 19.6,17.8C14,20.9 9.7,28.3 10,36.3Z" style="fill:#E1DAD1;fill-rule:nonzero;"/>
            <path d="M11.7,79.1C13.8,79.1 14.7,79.9 16.2,81.2C17.9,82.7 20.2,84.8 24.5,84.8C28.8,84.8 31.1,82.7 32.8,81.2C34.3,79.9 35.2,79.1 37.3,79.1C39.4,79.1 40.3,79.9 41.8,81.2C43.5,82.7 45.8,84.8 50.1,84.8C54.4,84.8 56.7,82.7 58.4,81.2C59.9,79.9 60.8,79.1 62.9,79.1C65,79.1 65.9,79.9 67.4,81.2C69.1,82.7 71.4,84.8 75.7,84.8C80,84.8 82.3,82.7 84,81.2C85.5,79.9 86.4,79.1 88.5,79.1C90.1,79.1 91.4,77.8 91.4,76.2C91.4,74.6 90.1,73.3 88.5,73.3C84.2,73.3 81.9,75.4 80.2,76.9C78.7,78.2 77.8,79 75.7,79C73.6,79 72.7,78.2 71.2,76.9C69.5,75.4 67.2,73.3 62.9,73.3C58.6,73.3 56.3,75.4 54.6,76.9C53.1,78.2 52.2,79 50.1,79C48,79 47.1,78.2 45.6,76.9C43.9,75.4 41.6,73.3 37.3,73.3C33,73.3 30.7,75.4 29,76.9C27.5,78.2 26.6,79 24.5,79C22.4,79 21.5,78.2 20,76.9C18.3,75.4 16,73.3 11.7,73.3C10.1,73.3 8.8,74.6 8.8,76.2C8.8,77.9 10.1,79.1 11.7,79.1Z" style="fill:#E1DAD1;fill-rule:nonzero;"/>
            <path d="M88.3,86.1C84,86.1 81.7,88.2 80,89.7C78.5,91 77.6,91.8 75.5,91.8C73.4,91.8 72.5,91 71,89.7C69.3,88.2 67,86.1 62.7,86.1C58.4,86.1 56.1,88.2 54.4,89.7C53,91 52.1,91.8 50,91.8C47.9,91.8 47,91 45.5,89.7C43.8,88.2 41.5,86.1 37.2,86.1C32.9,86.1 30.6,88.2 28.9,89.7C27.4,91 26.5,91.8 24.4,91.8C22.3,91.8 21.4,91 19.9,89.7C18.2,88.2 15.9,86.1 11.6,86.1C10,86.1 8.7,87.4 8.7,89C8.7,90.6 10,91.9 11.6,91.9C13.7,91.9 14.6,92.7 16.1,94C17.8,95.5 20.1,97.6 24.4,97.6C28.7,97.6 31,95.5 32.7,94C34.2,92.7 35.1,91.9 37.2,91.9C39.3,91.9 40.2,92.7 41.7,94C43.4,95.5 45.7,97.6 50,97.6C54.3,97.6 56.6,95.5 58.3,94C59.8,92.7 60.7,91.9 62.8,91.9C64.9,91.9 65.8,92.7 67.3,94C69,95.5 71.3,97.6 75.6,97.6C79.9,97.6 82.2,95.5 83.9,94C85.4,92.7 86.3,91.9 88.4,91.9C90,91.9 91.3,90.6 91.3,89C91.2,87.4 89.9,86.1 88.3,86.1Z" style="fill:#E1DAD1;fill-rule:nonzero;"/>
        </g>
    </g>
</svg>
